<svg
  width="512"
  height="512"
  viewBox="0 0 512 512"
  fill="none"
  xmlns="http://www.w3.org/2000/svg"
>
  <g clip-path="url(#clip0)">
    <path
      d="M369.611 512.333L283 512.334V455.445L369.611 455.444C416.687 455.444 454.944 417.186 454.944 370.111V299H511.833L511.833 370.111C511.833 448.475 447.975 512.333 369.611 512.333Z"
      fill="white"
    />
    <path
      d="M142.222 512.333L228.833 512.334V455.445L142.222 455.444C95.1461 455.444 56.8891 417.186 56.8891 370.111V299H3.05176e-05L9.15527e-05 370.111C9.15527e-05 448.475 63.8581 512.333 142.222 512.333Z"
      fill="white"
    />
    <path
      d="M141.222 0.000332145L227.833 0V56.889L141.222 56.8893C94.1461 56.8893 55.8891 95.1476 55.8891 142.223V213.334H-0.999969L-0.999908 142.223C-0.999908 63.8586 62.8581 0.000332145 141.222 0.000332145Z"
      fill="white"
    />
    <path
      d="M369.611 0.000332145L283 0V56.889L369.611 56.8893C416.687 56.8893 454.944 95.1476 454.944 142.223V213.334H511.833L511.833 142.223C511.833 63.8586 447.975 0.000332145 369.611 0.000332145Z"
      fill="white"
    />
  </g>
  <defs>
    <clipPath id="clip0">
      <rect width="512" height="512" fill="white" />
    </clipPath>
  </defs>
</svg>
